<svg width="40" height="40" viewBox="0 0 40 40" fill="none" xmlns="http://www.w3.org/2000/svg">
<g clip-path="url(#clip0_144_69)">
<path d="M32.916 0.501226H7.08229C6.15172 0.500075 5.23005 0.682515 4.37009 1.0381C3.51013 1.39368 2.72877 1.91542 2.07075 2.57344C1.41274 3.23146 0.890997 4.01282 0.535413 4.87278C0.17983 5.73274 -0.00261103 6.6544 -0.00145943 7.58498V32.415C-0.00261103 33.3456 0.17983 34.2672 0.535413 35.1272C0.890997 35.9871 1.41274 36.7685 2.07075 37.4265C2.72877 38.0845 3.51013 38.6063 4.37009 38.9619C5.23005 39.3174 6.15172 39.4999 7.08229 39.4987H32.916C33.8466 39.4999 34.7683 39.3174 35.6282 38.9619C36.4882 38.6063 37.2696 38.0845 37.9276 37.4265C38.5856 36.7685 39.1073 35.9871 39.4629 35.1272C39.8185 34.2672 40.0009 33.3456 39.9998 32.415V7.58498C40.0009 6.6544 39.8185 5.73274 39.4629 4.87278C39.1073 4.01282 38.5856 3.23146 37.9276 2.57344C37.2696 1.91542 36.4882 1.39368 35.6282 1.0381C34.7683 0.682515 33.8466 0.500075 32.916 0.501226ZM38.3135 31.765C38.3182 32.5597 38.1656 33.3476 37.8648 34.0832C37.5639 34.8188 37.1206 35.4877 36.5603 36.0515C36.0001 36.6152 35.3339 37.0626 34.6002 37.3681C33.8664 37.6735 33.0796 37.8309 32.2848 37.8312H7.71479C6.11127 37.8289 4.57409 37.1909 3.44023 36.057C2.30638 34.9232 1.66836 33.386 1.66604 31.7825V8.21623C1.66836 6.61271 2.30638 5.07553 3.44023 3.94167C4.57409 2.80781 6.11127 2.16979 7.71479 2.16748H32.2648C33.8689 2.16781 35.4072 2.80519 36.5415 3.93948C37.6758 5.07377 38.3132 6.6121 38.3135 8.21623V31.765ZM15.8135 18.75L20.4823 27.715C20.5673 27.8512 20.516 27.9812 20.3835 27.9812H17.4798C17.2985 27.9812 17.2135 27.9362 17.1348 27.7662C16.0685 25.5662 14.9798 23.3662 13.866 21.0025H13.8348C12.8099 23.2786 11.7527 25.5401 10.6635 27.7862C10.5873 27.9162 10.5023 27.9675 10.3648 27.9675H7.61604C7.44729 27.9675 7.43479 27.8312 7.51979 27.7337L12.0835 19.035L7.66979 10.2337C7.56479 10.0975 7.66979 9.99873 7.76604 9.99873H10.631C10.7998 9.99873 10.866 10.0325 10.931 10.18C11.9947 12.3974 13.0343 14.6263 14.0498 16.8662H14.081C15.051 14.6662 16.1198 12.3812 17.1473 10.2C17.2323 10.0637 17.2835 9.97873 17.4473 9.97873H20.1285C20.2648 9.97873 20.3173 10.0837 20.2335 10.2137L15.8135 18.75ZM21.301 21.465C21.301 17.585 23.8798 14.55 27.981 14.55C28.3323 14.55 28.5148 14.55 28.8473 14.5837V10.17C28.8473 10.065 28.931 9.99998 29.016 9.99998H31.646C31.7823 9.99998 31.816 10.0512 31.816 10.13V25.4362C31.816 25.885 31.816 26.4512 31.901 27.0625C31.901 27.1675 31.8673 27.1987 31.7648 27.2525C30.4316 27.8844 28.9751 28.2135 27.4998 28.2162C23.8798 28.235 21.301 26.0025 21.301 21.465ZM28.8485 17.2C28.5403 17.0837 28.2129 17.0264 27.8835 17.0312C25.7823 17.0312 24.3173 18.6512 24.3173 21.335C24.3173 24.4012 25.8135 25.6312 27.7023 25.6312C28.0985 25.6312 28.536 25.5862 28.8485 25.45V17.2Z" fill="black"/>
</g>
<defs>
<clipPath id="clip0_144_69">
<rect width="40" height="40" fill="white"/>
</clipPath>
</defs>
</svg>
