<svg width="50" height="50" viewBox="0 0 50 50" fill="none" xmlns="http://www.w3.org/2000/svg">
<path d="M40.104 5.72913H9.89567C7.59448 5.72913 5.729 7.59461 5.729 9.89579V40.1041C5.729 42.4053 7.59448 44.2708 9.89567 44.2708H40.104C42.4052 44.2708 44.2707 42.4053 44.2707 40.1041V9.89579C44.2707 7.59461 42.4052 5.72913 40.104 5.72913Z" stroke="black" stroke-width="0.833333" stroke-linecap="round" stroke-linejoin="round"/>
<path d="M32.5102 35.4166C31.9124 35.4168 31.3273 35.2437 30.8258 34.9183C30.3243 34.593 29.9277 34.1293 29.6842 33.5833L24.9998 23.0729L22.255 29.2312H23.1279C23.9382 29.2461 24.7102 29.5784 25.278 30.1567C25.8458 30.735 26.1639 31.513 26.1639 32.3234C26.1639 33.1338 25.8458 33.9119 25.278 34.4901C24.7102 35.0684 23.9382 35.4007 23.1279 35.4156H17.4894C16.9739 35.4152 16.4668 35.2861 16.014 35.0399C15.5611 34.7937 15.177 34.4382 14.8964 34.0059C14.6159 33.5735 14.4478 33.0779 14.4074 32.564C14.3671 32.0502 14.4558 31.5344 14.6654 31.0635L20.7967 17.3114C21.1588 16.4992 21.7485 15.8092 22.4944 15.3249C23.2403 14.8406 24.1105 14.5827 24.9998 14.5823C25.8891 14.5827 26.7593 14.8406 27.5052 15.3249C28.2511 15.8092 28.8407 16.4992 29.2029 17.3114L35.3342 31.0646C35.5438 31.5354 35.6325 32.0512 35.5921 32.5651C35.5518 33.0789 35.3837 33.5745 35.1031 34.0069C34.8226 34.4393 34.4385 34.7947 33.9856 35.0409C33.5328 35.2871 33.0256 35.4163 32.5102 35.4166Z" stroke="black" stroke-width="0.833333" stroke-linecap="round" stroke-linejoin="round"/>
</svg>
