<svg width="45" height="45" viewBox="0 0 45 45" fill="none" xmlns="http://www.w3.org/2000/svg">
<g clip-path="url(#clip0_144_56)">
<path d="M22.0688 21.075H18.6675V15.3788H22.7025C24.8962 15.3788 26.1413 16.3575 26.1413 18.1275C26.1413 20.0175 24.6919 21.075 22.065 21.075H22.0688ZM22.6762 23.3363H18.6694V29.6138H22.8525C25.5881 29.6138 27.0375 28.5169 27.0375 26.4544C27.0375 24.3919 25.5469 23.3363 22.6762 23.3363ZM45 21.3563V23.64C42.885 23.8425 41.5931 25.41 40.8263 27.8925C40.0631 30.3656 39.9581 33.3994 40.0388 35.7413C40.1231 38.1788 38.2238 40.4288 35.6569 40.4288H9.34688C6.77813 40.4288 4.87875 38.1788 4.965 35.7413C5.04563 33.3994 4.94062 30.3656 4.1775 27.8925C3.40875 25.41 2.115 23.8425 0 23.64V21.3563C2.115 21.1538 3.41063 19.5863 4.17562 17.1038C4.94062 14.6306 5.04563 11.5969 4.96313 9.255C4.87875 6.8175 6.77813 4.5675 9.34688 4.5675H35.6569C38.2256 4.5675 40.1231 6.8175 40.0388 9.255C39.9581 11.5969 40.0631 14.6306 40.8263 17.1038C41.5931 19.5863 42.885 21.1538 45 21.3563ZM30.1369 26.6381C30.1369 24.0994 28.35 22.2638 25.6969 21.9731V21.8663C27.6469 21.5494 29.1769 19.7381 29.1769 17.7169C29.1769 14.835 26.9025 12.9581 23.4356 12.9581H15.6356V32.0306H23.475C27.6338 32.0306 30.1369 29.9944 30.1369 26.6381Z" fill="black"/>
</g>
<defs>
<clipPath id="clip0_144_56">
<rect width="45" height="45" fill="white"/>
</clipPath>
</defs>
</svg>
