<svg width="45" height="45" viewBox="0 0 45 45" fill="none" xmlns="http://www.w3.org/2000/svg">
<g clip-path="url(#clip0_144_78)">
<path d="M22.5 0C10.0702 0 0 10.0702 0 22.5C0 34.9298 10.0702 45 22.5 45C34.9298 45 45 34.9298 45 22.5C45 10.0702 34.9298 0 22.5 0ZM13.0514 14.4C14.4647 14.4 15.5644 15.4308 15.6881 16.6486C15.8217 17.7469 15.3661 18.7073 14.1511 19.2853C13.5056 19.6073 13.2497 19.6073 13.1175 19.4161C13.0514 19.2853 13.1175 19.1616 13.2483 19.028C14.407 18.0703 14.407 17.2941 14.2734 16.2028C14.2073 15.4927 13.6955 15.0441 13.1822 15.0441C10.9266 15.0441 7.71891 20.0545 8.16469 23.7234C8.36297 25.1367 9.19828 26.8073 10.9927 26.8073C11.572 26.8073 12.2175 26.6161 12.7941 26.3616C13.732 25.8623 14.2959 25.4827 14.8528 24.8597C14.7136 23.1961 16.1705 21.022 18.3234 21.022C19.2909 21.022 20.0602 21.4102 20.1248 22.1203C20.25 23.0808 19.4147 23.2116 19.1587 23.2116C18.9028 23.2116 18.4486 23.1455 18.4486 22.8895C18.3909 22.6322 19.0266 22.7588 18.9675 22.1794C18.9014 21.7913 18.5133 21.6675 18.1336 21.6675C16.778 21.6675 16.0088 23.535 16.2 24.6839C16.2661 25.2028 16.5206 25.7175 17.0423 25.7175C17.4234 25.7175 18.0028 25.1381 18.1912 24.3042C18.322 23.7248 18.8367 23.3367 19.2895 23.3367C19.4808 23.3367 19.6045 23.4028 19.6706 23.6587V23.9161C19.613 24.1734 19.4133 24.9497 19.4808 25.1381C19.4808 25.2717 19.5469 25.4602 19.8014 25.4602C19.9702 25.4602 20.6156 25.1227 21.2597 24.5953C21.472 23.4886 21.728 22.1639 21.728 22.0542C21.7941 21.6 21.9853 21.1528 22.8853 21.1528C23.0822 21.1528 23.2073 21.2189 23.2734 21.4748V21.7322L23.0161 22.8895C23.8528 21.7983 25.0748 21.0291 25.8441 21.0291C26.1661 21.0291 26.4234 21.2189 26.4234 21.5409C26.4234 21.7322 26.4234 22.0542 26.2898 22.3777C26.0353 23.0808 25.7119 24.1791 25.5206 25.1381C25.5206 25.3955 25.5867 25.6514 25.9087 25.6514C26.2308 25.6514 27.1912 25.2703 27.9605 24.2381L27.9759 24.2311C27.9759 24.1059 27.9605 23.9822 27.9605 23.8584C27.9605 23.0822 28.0266 22.4452 28.1588 21.9909C28.2895 21.4777 28.928 21.0305 29.3161 21.0305C29.5059 21.0305 29.7042 21.1542 29.7042 21.3455C29.7042 21.4116 29.7042 21.5423 29.6381 21.6028C29.3808 22.4452 29.1825 23.213 29.1825 23.9822C29.1825 24.4364 29.25 25.0734 29.3808 25.4616C29.3808 25.5277 29.4384 25.5923 29.5045 25.5923C29.6381 25.5923 30.5381 24.7584 31.1752 23.6587C30.5958 23.2777 30.2737 22.6336 30.2737 21.8644C30.2737 20.5102 31.1175 19.8056 31.8867 19.8056C32.5322 19.8056 33.0441 20.2542 33.0441 21.1542C33.0441 21.7336 32.8528 22.3791 32.5322 22.9556H32.722C33.1327 22.9711 33.5363 22.8023 33.8133 22.5098C33.8745 22.4121 33.9644 22.3355 34.0706 22.2905C34.7006 21.4917 35.6231 20.8997 36.7144 20.8997C37.6144 20.8997 38.4427 21.2878 38.5088 21.9909C38.6395 22.957 37.7986 23.1483 37.5412 23.1483C37.2867 23.1483 36.8325 23.0822 36.8325 22.8263C36.8325 22.5703 37.4105 22.6955 37.3514 22.1231C37.2853 21.735 36.8972 21.6042 36.5091 21.6042C35.2266 21.6042 34.3927 23.2734 34.5811 24.6291C34.6472 25.1409 34.9031 25.7203 35.4178 25.7203C35.8059 25.7203 36.3839 25.1409 36.6398 24.307C36.7636 23.7952 37.2853 23.3395 37.7311 23.3395C37.928 23.3395 38.0531 23.4056 38.1192 23.6616C38.1192 23.7952 38.1192 24.0497 37.8619 24.8864C37.5398 25.4644 37.5398 25.7864 37.6073 26.0438C37.665 26.5556 37.9223 26.9437 38.1853 27.135C38.2321 27.1948 38.2739 27.2583 38.3105 27.3248C38.3105 27.4584 38.243 27.5892 38.0531 27.5892C37.987 27.5892 37.928 27.5892 37.8619 27.5231C36.8958 27.135 36.5077 26.4895 36.3825 25.8455C35.9944 26.2997 35.5486 26.5556 35.0283 26.5556C34.1916 26.5556 33.3647 25.7864 33.2339 24.8189C33.195 24.4086 33.2424 23.9948 33.3731 23.6039C32.992 23.8458 32.5814 23.985 32.2017 23.985H31.8867C31.0444 25.207 30.143 26.0438 29.5059 26.4248C29.2866 26.542 29.0441 26.6092 28.7958 26.6217C28.672 26.6217 28.4752 26.5556 28.4147 26.4248C28.2333 26.1394 28.1222 25.6922 28.0491 25.1803C27.1477 26.1605 25.9017 26.6878 25.3252 26.6878C24.6797 26.6878 24.3 26.2997 24.2339 25.657V24.9539C24.4237 23.5406 24.9441 22.6983 24.9441 22.4409C24.9403 22.4071 24.9249 22.3755 24.9006 22.3517C24.8762 22.3279 24.8444 22.3132 24.8105 22.3102C24.3647 22.3102 22.8853 23.8556 22.628 24.8878L22.4311 25.7217C22.3059 26.2997 21.728 26.6878 21.3398 26.6878C21.1486 26.6878 21.0178 26.6217 20.9588 26.3672V26.1098L21.0389 25.6711C20.2247 26.2491 19.4119 26.6217 19.0237 26.6217C18.4458 26.6217 18.1238 26.2997 18.0661 25.8455C17.678 26.3672 17.2294 26.6217 16.6528 26.6217C15.9848 26.6217 15.3422 26.1675 15.0342 25.5094C14.5716 26.0283 14.0513 26.5486 13.4367 26.9437C12.5367 27.5231 11.5116 27.9689 10.2867 27.9689C9.19547 27.9689 8.22937 27.3895 7.71609 26.8777C6.93984 26.1675 6.49406 25.0762 6.42797 24.0497C6.04688 20.9011 7.97344 16.8497 10.9238 15.0483C11.6339 14.6602 12.3455 14.4056 13.0486 14.4056L13.0514 14.4ZM31.3692 20.5748C31.1794 20.5748 31.0486 20.8969 31.0486 21.2105C31.0486 21.7322 31.3031 22.3087 31.6266 22.6322C31.7558 22.2803 31.8229 21.9087 31.8248 21.5339C31.8248 20.8983 31.5675 20.5762 31.3692 20.5762V20.5748Z" fill="black"/>
</g>
<defs>
<clipPath id="clip0_144_78">
<rect width="45" height="45" fill="white"/>
</clipPath>
</defs>
</svg>
