<svg width="60" height="60" viewBox="0 0 60 60" fill="none" xmlns="http://www.w3.org/2000/svg">
<path d="M52.925 8.125C53.475 8.125 53.9667 8.33333 54.4 8.75C54.8 9.15 55 9.63333 55 10.2V49.8C55 50.3667 54.8 50.85 54.4 51.25C53.9667 51.6667 53.475 51.875 52.925 51.875H19.575C19.025 51.875 18.5333 51.6667 18.1 51.25C17.7 50.85 17.5 50.3667 17.5 49.8V42.5H7.075C6.525 42.5 6.03333 42.3 5.6 41.9C5.2 41.4667 5 40.975 5 40.425V19.575C5 19.025 5.2 18.5333 5.6 18.1C6.03333 17.7 6.525 17.5 7.075 17.5H17.5V10.2C17.5 9.63333 17.7 9.15 18.1 8.75C18.5333 8.33333 19.025 8.125 19.575 8.125M17.5 32.65L20.45 38.2H24.925L20 30.15L24.825 22.225H20.55L17.825 27.25L17.725 27.4L17.65 27.575C17.2167 26.6917 16.75 25.8 16.25 24.9C15.8333 24.0167 15.3917 23.125 14.925 22.225H10.4L15.125 30.2L10 38.2H14.45M34.7 48.75V42.5H20.625V48.75M34.7 39.375V31.575H30V39.375M34.7 28.45V20.625H30V28.45M34.7 17.5V11.25H20.625V17.5M51.875 48.75V42.5H37.825V48.75M51.875 39.375V31.575H37.825V39.375M51.875 28.45V20.625H37.825V28.45M51.875 17.5V11.25H37.825V17.5H51.875Z" fill="black"/>
</svg>
