<svg width="45" height="45" viewBox="0 0 45 45" fill="none" xmlns="http://www.w3.org/2000/svg">
<path opacity="0.6" d="M21.8756 3.75H15.6243C13.9667 3.75 12.3769 4.40851 11.2047 5.58067C10.0325 6.75284 9.37402 8.34263 9.37402 10.0003C9.37402 11.658 10.0325 13.2478 11.2047 14.42C12.3769 15.5921 13.9667 16.2506 15.6243 16.2506H21.8756V3.75Z" fill="black"/>
<path opacity="0.4" d="M21.8756 16.2506H15.6244C13.9669 16.2506 12.3774 16.909 11.2054 18.081C10.0334 19.253 9.375 20.8425 9.375 22.5C9.375 24.1574 10.0334 25.747 11.2054 26.919C12.3774 28.0909 13.9669 28.7494 15.6244 28.7494H21.8756V16.2506Z" fill="black"/>
<path d="M34.3742 22.4999C34.3742 24.1576 33.7156 25.7474 32.5435 26.9196C31.3713 28.0917 29.7815 28.7503 28.1238 28.7503C26.4662 28.7503 24.8764 28.0917 23.7042 26.9196C22.532 25.7474 21.8735 24.1576 21.8735 22.4999C21.8735 20.8423 22.532 19.2525 23.7042 18.0803C24.8764 16.9081 26.4662 16.2496 28.1238 16.2496C29.7815 16.2496 31.3713 16.9081 32.5435 18.0803C33.7156 19.2525 34.3742 20.8423 34.3742 22.4999Z" fill="black"/>
<path opacity="0.2" d="M15.6245 28.7513H21.8757V35.0006C21.8753 36.2365 21.5085 37.4445 20.8217 38.4719C20.1349 39.4993 19.1588 40.3 18.017 40.7728C16.8751 41.2456 15.6188 41.3692 14.4067 41.128C13.1946 40.8868 12.0812 40.2916 11.2074 39.4177C10.3335 38.5439 9.73832 37.4305 9.49713 36.2184C9.25593 35.0063 9.37953 33.7499 9.8523 32.6081C10.3251 31.4663 11.1258 30.4902 12.1532 29.8034C13.1806 29.1165 14.3886 28.7516 15.6245 28.7513Z" fill="black"/>
<path opacity="0.8" d="M21.8735 3.75H28.1229C29.7806 3.75 31.3704 4.40851 32.5425 5.58067C33.7147 6.75284 34.3732 8.34263 34.3732 10.0003C34.3732 11.658 33.7147 13.2478 32.5425 14.42C31.3704 15.5921 29.7806 16.2506 28.1229 16.2506H21.8735V3.75Z" fill="black"/>
</svg>
