<svg width="50" height="50" viewBox="0 0 50 50" fill="none" xmlns="http://www.w3.org/2000/svg">
<path d="M8.15479 6.25L8.3001 7.95937L11.0345 38.8672L11.1329 39.9422L12.1579 40.2344L24.561 43.7016L24.9517 43.7984L25.3907 43.7016L37.7938 40.2828L38.8188 39.9906L38.9157 38.9156L41.7001 7.95937L41.8454 6.29844H40.1376L9.86416 6.25H8.15479ZM11.572 9.375L38.4282 9.42344L35.8892 37.5484L25.0001 40.5781L14.0626 37.5469L11.572 9.375ZM15.3329 14.0625L16.3579 25.7328H29.736L29.297 30.7609L25.0001 31.9328H24.9517L20.6548 30.7609L20.411 27.5391H16.5048L17.0407 33.7406L24.9532 35.9375H25.0001L32.911 33.7406L33.9845 21.875H19.8735L19.5313 17.9203H34.3267L34.6673 14.0625H15.3329Z" fill="black"/>
</svg>
