<svg width="40" height="40" viewBox="0 0 40 40" fill="none" xmlns="http://www.w3.org/2000/svg">
<path d="M9.375 5C8.5462 5 7.75134 5.32924 7.16529 5.91529C6.57924 6.50134 6.25 7.2962 6.25 8.125C6.25 8.9538 6.57924 9.74866 7.16529 10.3347C7.75134 10.9208 8.5462 11.25 9.375 11.25C9.96476 11.2483 10.542 11.0797 11.04 10.7638L20.3975 17.815C19.3296 19.1428 18.7482 20.796 18.75 22.5C18.75 24.44 19.4925 26.2 20.7 27.5312L16.895 31.3375C16.6847 31.2803 16.4679 31.2509 16.25 31.25C15.587 31.25 14.9511 31.5134 14.4822 31.9822C14.0134 32.4511 13.75 33.087 13.75 33.75C13.75 34.413 14.0134 35.0489 14.4822 35.5178C14.9511 35.9866 15.587 36.25 16.25 36.25C16.633 36.2496 17.0109 36.1611 17.3543 35.9915C17.6977 35.8218 17.9976 35.5755 18.2307 35.2716C18.4639 34.9677 18.6241 34.6142 18.6989 34.2386C18.7738 33.8629 18.7613 33.4751 18.6625 33.105L22.6737 29.0938H22.6763C23.8187 29.7129 25.1023 30.0247 26.4015 29.9984C27.7006 29.9722 28.9706 29.6089 30.0871 28.9441C31.2036 28.2793 32.1282 27.3358 32.7703 26.2062C33.4124 25.0765 33.75 23.7994 33.75 22.5C33.7482 20.7287 33.1195 19.0153 31.9753 17.6631C30.8311 16.311 29.2453 15.4074 27.4988 15.1125V10.9125C27.974 10.6368 28.3452 10.2123 28.555 9.70447C28.7647 9.19668 28.8014 8.63393 28.6592 8.10322C28.5171 7.57251 28.2041 7.1034 27.7686 6.76842C27.3331 6.43344 26.7994 6.25125 26.25 6.25C25.7005 6.25097 25.1666 6.43297 24.7309 6.76786C24.2952 7.10274 23.982 7.57184 23.8397 8.10262C23.6974 8.63339 23.7339 9.19627 23.9437 9.70418C24.1534 10.2121 24.5247 10.6368 25 10.9125V15.1125C24.0471 15.2745 23.1346 15.6192 22.3125 16.1275L12.4462 8.69375C12.5297 8.24298 12.5129 7.77937 12.3971 7.3358C12.2814 6.89223 12.0694 6.47956 11.7763 6.12706C11.4832 5.77457 11.1162 5.49087 10.7012 5.29609C10.2862 5.10132 9.83343 5.00023 9.375 5ZM26.25 18.75C28.3175 18.75 30 20.4325 30 22.5C30 24.5675 28.3175 26.25 26.25 26.25C24.1825 26.25 22.5 24.5675 22.5 22.5C22.5 20.4325 24.1825 18.75 26.25 18.75Z" fill="black"/>
</svg>
