<svg width="45" height="45" viewBox="0 0 45 45" fill="none" xmlns="http://www.w3.org/2000/svg">
<path d="M11.25 5.625C9.75816 5.625 8.32742 6.21763 7.27252 7.27252C6.21763 8.32742 5.625 9.75816 5.625 11.25V33.75C5.625 35.2418 6.21763 36.6726 7.27252 37.7275C8.32742 38.7824 9.75816 39.375 11.25 39.375H33.75C35.2418 39.375 36.6726 38.7824 37.7275 37.7275C38.7824 36.6726 39.375 35.2418 39.375 33.75V11.25C39.375 9.75816 38.7824 8.32742 37.7275 7.27252C36.6726 6.21763 35.2418 5.625 33.75 5.625H11.25ZM25.0012 30.1031C26.3512 31.1906 27.6987 31.7269 29.0437 31.7119C29.8687 31.7119 30.5013 31.5606 30.9413 31.2581C31.1461 31.1251 31.3128 30.9411 31.4249 30.7241C31.537 30.5071 31.5907 30.2647 31.5806 30.0206C31.5835 29.7544 31.5279 29.4909 31.4177 29.2485C31.3076 29.0062 31.1455 28.791 30.9431 28.6181C30.5031 28.2344 29.6706 27.8494 28.4456 27.4631C26.9744 27.0381 25.84 26.4881 25.0425 25.8131C24.26 25.1381 23.8613 24.1963 23.8463 22.9875C23.8463 21.8463 24.3413 20.8906 25.3313 20.1206C26.2938 19.3506 27.525 18.9656 29.025 18.9656C31.115 18.9656 32.7919 19.4744 34.0556 20.4919L32.6119 22.74C32.092 22.3358 31.4956 22.0411 30.8588 21.8738C30.2864 21.682 29.6884 21.5777 29.085 21.5644C28.3725 21.5644 27.8019 21.695 27.3731 21.9563C26.9481 22.2188 26.7356 22.5625 26.7356 22.9875C26.7356 23.455 26.9962 23.8537 27.5175 24.1837C28.0425 24.5012 28.9363 24.8519 30.1988 25.2356C31.725 25.6894 32.8112 26.2944 33.4575 27.0506C34.1037 27.8069 34.4269 28.7694 34.4269 29.9381C34.4269 31.1344 33.9663 32.1656 33.045 33.0319C32.1375 33.8844 30.8175 34.3313 29.085 34.3725C26.8163 34.3725 24.9187 33.6919 23.3925 32.3306L25.0012 30.1031ZM14.6325 31.2994C15.0725 31.5744 15.6019 31.7119 16.2206 31.7119C16.8669 31.7119 17.4031 31.5262 17.8294 31.155C18.2544 30.77 18.4675 30.1031 18.4688 29.1544V19.2131H21.2531V29.6906C21.2119 31.3131 20.7444 32.4819 19.8506 33.1969C19.3616 33.6103 18.793 33.9192 18.18 34.1044C17.6115 34.2775 17.0211 34.3678 16.4269 34.3725C15.3956 34.3725 14.4812 34.1937 13.6837 33.8362C12.8312 33.4525 12.1162 32.7719 11.5387 31.7944L13.4775 30.2063C13.8338 30.6875 14.2187 31.0519 14.6325 31.2994Z" fill="black"/>
</svg>
