<svg width="50" height="50" viewBox="0 0 50 50" fill="none" xmlns="http://www.w3.org/2000/svg">
<path d="M41.0417 36.6667C40.8333 36.25 40.625 35.8333 40.625 35.4167C40.625 34.5833 40.2083 33.9583 39.5833 33.3333C39.375 33.125 38.9583 32.9167 38.75 32.9167C40 29.1667 38.125 25.4167 36.0417 22.7083C34.375 20.2083 31.875 18.3333 32.0833 15C32.0833 11.0417 32.5 3.75001 25.2083 4.37501C17.7083 4.79168 19.7917 12.5 19.5833 15.2083C19.5833 17.5 18.5417 19.7917 16.875 21.6667C16.4583 22.0833 16.0417 22.7083 15.8333 23.125C13.75 25.625 12.7083 28.9583 12.7083 32.0833C12.2917 32.5 11.875 32.9167 11.6667 33.3333C11.4583 33.5417 11.25 33.75 11.25 33.9583C11.0417 34.1667 10.625 34.375 10.2083 34.5833C9.375 34.7917 8.75 35.2083 8.33333 36.0417C8.125 36.6667 7.91667 37.5 8.125 38.3333C8.33333 38.75 8.33333 39.1667 8.125 39.7917C7.70833 40.625 7.70833 41.6667 8.125 42.7083C8.75 43.5417 9.79167 43.75 11.25 43.9583C12.2917 43.9583 13.5417 44.375 14.5833 44.7917C15.625 45.4167 16.875 45.8333 18.125 45.8333C18.75 45.8333 19.5833 45.625 20.2083 45.4167C20.8333 45 21.25 44.5833 21.4583 43.9583C22.2917 43.9583 23.5417 43.5417 25 43.5417C26.25 43.5417 27.5 43.9583 29.1667 43.75C29.1667 43.9583 29.1667 44.1667 29.375 44.375C29.7917 45.4167 30.8333 46.25 32.0833 46.4583H32.5C34.1667 46.25 35.8333 45.4167 36.875 44.1667C37.7083 43.3333 38.75 42.7083 39.7917 42.2917C41.0417 41.6667 41.875 41.25 42.0833 40.2083C42.2917 38.75 41.875 37.9167 41.0417 36.6667ZM26.6667 10C27.9167 10.2083 28.9583 11.25 28.75 12.5C28.75 13.125 28.5417 13.75 28.125 14.375H27.9167C27.5 14.1667 27.2917 14.1667 27.0833 13.9583C27.2917 13.75 27.2917 13.3333 27.5 12.9167C27.5 12.0833 27.0833 11.4583 26.6667 11.4583C26.0417 11.4583 25.625 12.0833 25.625 12.9167V13.125C25.4167 12.9167 25 12.9167 24.7917 12.7083V12.5C24.5833 11.4583 25.4167 10.2083 26.6667 10ZM26.0417 14.1667C26.25 14.375 26.6667 14.5833 26.875 14.5833C27.0833 14.5833 27.5 14.7917 27.7083 15C28.125 15.2083 28.5417 15.4167 28.5417 16.0417C28.5417 16.6667 27.9167 17.2917 26.6667 17.7083C26.25 17.9167 26.0417 17.9167 25.8333 18.125C25.2083 18.5417 24.5833 18.75 23.75 18.75C23.125 18.75 22.5 18.3333 22.0833 17.9167C21.875 17.7083 21.6667 17.5 21.25 17.2917C21.0417 17.0833 20.625 16.6667 20.4167 16.0417C20.4167 15.8333 20.625 15.625 20.8333 15.4167C21.4583 15 21.6667 14.7917 21.875 14.5833L22.0833 14.375C22.5 13.75 23.3333 13.3333 24.1667 13.3333C24.7917 13.5417 25.4167 13.75 26.0417 14.1667ZM21.6667 10.4167C22.5 10.4167 23.125 11.25 23.3333 12.7083V13.125C23.125 13.125 22.7083 13.3333 22.5 13.5417V13.125C22.5 12.5 22.0833 11.875 21.6667 12.0833C21.25 12.0833 21.0417 12.7083 21.0417 13.3333C21.0417 13.75 21.25 13.9583 21.4583 14.1667C21.4583 14.1667 21.25 14.375 21.0417 14.375C20.625 13.9583 20.2083 13.3333 20.2083 12.7083C20.2083 11.4583 20.8333 10.4167 21.6667 10.4167ZM19.5833 43.9583C18.125 44.5833 16.25 44.375 15 43.5417C13.75 42.9167 12.7083 42.7083 11.25 42.7083C10.2083 42.5 9.16667 42.5 8.95833 42.0833C8.75 41.6667 8.75 41.0417 9.16667 40C9.375 39.375 9.375 38.75 9.16667 38.125C8.95833 37.5 8.95833 37.0833 9.16667 36.4583C9.375 35.8333 9.79167 35.625 10.4167 35.4167C11.0417 35.2083 11.4583 35 11.875 34.5833C12.0833 34.375 12.2917 34.1667 12.5 33.75C13.125 32.9167 13.5417 32.5 14.1667 32.5C15.4167 32.7083 16.4583 34.5833 17.2917 36.4583C17.7083 37.0833 18.125 37.9167 18.75 38.5417C19.5833 39.5833 20.625 41.0417 20.625 41.875C20.625 42.9167 20.2083 43.5417 19.5833 43.9583ZM29.7917 39.375C29.7917 39.5833 29.7917 39.5833 29.5833 39.7917C27.0833 41.6667 23.75 41.875 21.0417 40.4167L19.7917 38.5417C21.6667 38.3333 21.25 35.8333 17.2917 33.3333C13.125 30.625 16.0417 25.625 17.5 23.3333C17.7083 23.125 17.7083 23.3333 16.875 25C16.25 26.25 15 29.375 16.6667 31.6667C16.6667 30 17.0833 28.3333 17.7083 26.6667C19.1667 23.9583 20.2083 20.8333 20.8333 17.7083C21.0417 17.9167 21.0417 17.9167 21.25 17.9167C21.4583 18.125 21.6667 18.3333 21.875 18.3333C22.2917 18.9583 23.125 19.1667 23.75 19.1667H23.9583C24.7917 19.1667 25.625 18.9583 26.25 18.3333C26.4583 18.125 26.6667 17.9167 27.0833 17.9167C27.7083 17.7083 28.3333 17.2917 28.9583 16.6667C29.7917 19.375 30.625 21.875 31.875 24.1667C32.7083 25.8333 33.3333 27.5 33.75 29.375C34.375 29.375 35.2083 29.5833 35.8333 30C37.5 30.8333 38.125 31.4583 37.9167 32.5H37.5C37.5 31.875 37.0833 31.25 35.625 30.625C34.1667 30 32.9167 30 32.5 31.4583C32.2917 31.4583 32.0833 31.6667 31.875 31.6667C30.2083 32.5 30.2083 34.7917 30 37.0833C30.2083 37.9167 30 38.5417 29.7917 39.375ZM39.375 40.625C38.125 41.0417 37.0833 41.875 36.25 42.9167C35.4167 44.1667 33.9583 45 32.2917 44.7917C31.4583 44.7917 30.625 44.1667 30.4167 43.3333C30.2083 42.0833 30.2083 40.8333 30.8333 39.5833C31.0417 38.75 31.25 38.125 31.4583 37.2917C31.6667 34.7917 31.6667 33.3333 32.7083 32.7083C32.7083 33.75 33.3333 34.375 34.1667 34.7917C35.2083 34.7917 36.25 34.5833 37.0833 33.75H37.5C38.125 33.75 38.5417 33.75 38.9583 34.1667C39.375 34.5833 39.5833 35.2083 39.5833 35.625C39.5833 36.25 40 36.875 40.2083 37.5C41.25 38.5417 41.25 39.1667 41.25 39.375C41.0417 39.7917 40.2083 40.2083 39.375 40.625ZM20.625 15.625C20.4167 15.625 20.4167 15.625 20.4167 15.8333C20.4167 15.8333 20.4167 16.0417 20.625 16.0417C20.8333 16.0417 20.8333 16.25 20.8333 16.25C21.4583 17.0833 22.5 17.5 23.75 17.7083C24.7917 17.5 25.8333 17.2917 26.875 16.4583L28.125 15.8333C28.3333 15.8333 28.3333 15.625 28.3333 15.625C28.3333 15.4167 28.3333 15.4167 28.125 15.4167C27.7083 15.625 27.0833 15.8333 26.6667 16.0417C25.8333 16.6667 24.7917 17.0833 23.75 17.0833C22.7083 17.0833 21.875 16.4583 21.25 15.8333C21.0417 15.8333 20.8333 15.625 20.625 15.625Z" fill="black"/>
</svg>
