<svg width="80" height="80" viewBox="0 0 80 80" fill="none" xmlns="http://www.w3.org/2000/svg">
<g clip-path="url(#clip0_93_1115)">
<path d="M54.6833 18.3367C54.3 18.3367 54.04 18.3834 53.77 18.4467V18.49H53.8167C53.9967 18.8367 54.3033 19.09 54.53 19.4C54.71 19.7567 54.8633 20.1134 55.0433 20.4667L55.09 20.4167C55.4033 20.1967 55.5567 19.8434 55.5567 19.3067C55.4233 19.15 55.4033 18.9934 55.29 18.84C55.1567 18.6167 54.87 18.5067 54.69 18.33L54.6833 18.3367ZM19.2333 62.3167H16.1433C16.0558 57.406 15.7555 52.5014 15.2433 47.6167H15.2167L10.5167 62.3167H8.16667L3.5 47.6167H3.46667C3.10186 52.509 2.8851 57.4113 2.81667 62.3167H0C0.184444 55.7611 0.64 49.6167 1.36667 43.8834H5.2L9.65 57.43H9.67667L14.1667 43.8834H17.8167C18.6233 50.6034 19.0989 56.7478 19.2433 62.3167H19.2333ZM32.6233 48.7167C31.3633 55.5367 29.7056 60.4922 27.65 63.5834C26.0433 65.97 24.2844 67.1622 22.3733 67.16C21.8667 67.16 21.2378 67.0067 20.4867 66.7V65.0534C20.8556 65.1111 21.2844 65.14 21.7733 65.14C22.6667 65.14 23.3856 64.8934 23.93 64.4C24.5856 63.8 24.9133 63.1278 24.9133 62.3834C24.9133 61.8656 24.6578 60.8167 24.1467 59.2367L20.7667 48.7167H23.8L26.2233 56.5834C26.7722 58.37 27 59.6178 26.9067 60.3267C28.24 56.7756 29.1678 52.9056 29.69 48.7167H32.6233ZM73.7067 62.3167H64.94V43.8834H67.89V60.05H73.7067V62.3167ZM62.64 62.7667L59.2533 61.1C59.5556 60.8489 59.8389 60.5711 60.1033 60.2667C61.5456 58.5778 62.2656 56.0745 62.2633 52.7567C62.2633 46.6567 59.8689 43.6056 55.08 43.6034C52.7333 43.6034 50.9 44.3778 49.58 45.9267C48.1444 47.62 47.4267 50.1145 47.4267 53.41C47.4244 56.6522 48.0622 59.03 49.34 60.5434C50.5044 61.91 52.2633 62.5934 54.6167 62.5934C55.4967 62.5934 56.3022 62.4845 57.0333 62.2667L61.45 64.84L62.65 62.7667H62.64ZM51.6667 58.6267C50.9178 57.4245 50.5433 55.4956 50.5433 52.84C50.5433 48.1956 51.9544 45.8734 54.7767 45.8734C56.2567 45.8734 57.3422 46.4289 58.0333 47.54C58.78 48.7467 59.1533 50.6611 59.1533 53.2834C59.1533 57.9656 57.7422 60.3078 54.92 60.31C53.4378 60.31 52.3511 59.7545 51.66 58.6434L51.6667 58.6267ZM46.14 57.21C46.14 58.7789 45.5667 60.0634 44.42 61.0634C43.2778 62.0634 41.74 62.5633 39.8067 62.5633C37.9967 62.5633 36.26 61.99 34.5633 60.8467L35.3533 59.26C36.8111 59.9911 38.1333 60.3556 39.32 60.3534C40.4267 60.3534 41.2967 60.1089 41.93 59.62C42.2473 59.3821 42.5035 59.0722 42.6774 58.7157C42.8513 58.3592 42.9379 57.9665 42.93 57.57C42.93 56.47 42.1633 55.5367 40.77 54.7534C39.4767 54.0434 36.8933 52.5634 36.8933 52.5634C35.4867 51.54 34.7867 50.4434 34.7867 48.64C34.7867 47.1422 35.3089 45.9367 36.3533 45.0234C37.4 44.0989 38.7556 43.6378 40.42 43.64C42.1289 43.64 43.6844 44.0956 45.0867 45.0067L44.3767 46.5934C43.2588 46.0997 42.052 45.8388 40.83 45.8267C39.8856 45.8267 39.1589 46.0556 38.65 46.5134C38.3938 46.7271 38.1871 46.994 38.0443 47.2957C37.9016 47.5973 37.8262 47.9263 37.8233 48.26C37.8233 49.3534 38.6033 50.2934 40.0433 51.0934C41.3533 51.81 44 53.3267 44 53.3267C45.4433 54.3434 46.16 55.4267 46.16 57.22L46.14 57.21ZM77.4133 37.7034C75.63 37.6567 74.2467 37.8367 73.09 38.33C72.7567 38.4634 72.2233 38.4634 72.1767 38.8867C72.36 39.0634 72.3867 39.3534 72.5433 39.6C72.81 40.0467 73.27 40.6434 73.6967 40.9567C74.1589 41.3278 74.6333 41.6722 75.12 41.99C75.9867 42.5234 76.97 42.84 77.82 43.3767C78.3033 43.69 78.7967 44.0867 79.2867 44.42C79.53 44.5867 79.6867 44.8867 80 44.9934V44.9267C79.8467 44.7267 79.8 44.4367 79.65 44.2134C79.4267 43.99 79.2033 43.79 78.9833 43.57C78.3298 42.7068 77.5486 41.9481 76.6667 41.32C75.9533 40.8334 74.3933 40.1534 74.1 39.3367L74.0567 39.29C74.5433 39.2467 75.1233 39.07 75.59 38.9367C76.3467 38.7367 77.04 38.78 77.8233 38.5834C78.1789 38.49 78.5344 38.3856 78.89 38.27V38.07C78.49 37.67 78.19 37.1267 77.7767 36.7534C76.6219 35.7463 75.3916 34.8291 74.0967 34.01C73.3967 33.5634 72.51 33.2767 71.7733 32.8967C71.5067 32.7634 71.06 32.6967 70.9067 32.4734C70.5067 31.9867 70.2733 31.34 69.99 30.76C69.3363 29.4899 68.7281 28.1969 68.1667 26.8834C67.7667 26.01 67.5233 25.14 67.0333 24.34C64.7333 20.55 62.2433 18.2534 58.4133 16.0067C57.59 15.54 56.6033 15.34 55.56 15.0934C55.0033 15.0667 54.4467 15.0267 53.8933 15.0034C53.5267 14.8467 53.1733 14.4234 52.86 14.22C51.5933 13.42 48.3133 11.6867 47.38 13.98C46.78 15.4267 48.27 16.8534 48.7867 17.5867C49.17 18.0967 49.6533 18.68 49.92 19.2534C50.0767 19.64 50.12 20.0367 50.2767 20.44C50.63 21.42 50.9667 22.5134 51.4333 23.43C51.6767 23.8967 51.9433 24.3867 52.2567 24.8067C52.4367 25.05 52.7433 25.1634 52.8133 25.5634C52.5 26.0167 52.48 26.6767 52.3 27.23C51.5 29.7534 51.8133 32.8734 52.9467 34.73C53.3033 35.2834 54.1533 36.51 55.29 36.04C56.29 35.64 56.07 34.3734 56.3567 33.2567C56.4233 32.99 56.38 32.8134 56.5167 32.6334V32.6834C56.83 33.31 57.1433 33.9067 57.43 34.5334C58.1167 35.6267 59.3167 36.76 60.32 37.5167C60.8533 37.9167 61.2767 38.61 61.9433 38.8567V38.79H61.8933C61.75 38.5967 61.56 38.5034 61.38 38.3467C60.9579 37.9325 60.5679 37.4867 60.2133 37.0134C59.277 35.7281 58.4444 34.3705 57.7233 32.9534C57.3567 32.2534 57.05 31.5 56.7567 30.81C56.6233 30.5434 56.6233 30.1434 56.4 30.01C56.0667 30.4967 55.5767 30.92 55.3333 31.52C54.91 32.48 54.8667 33.66 54.7067 34.8867C54.6167 34.91 54.66 34.8867 54.6167 34.9334C53.9033 34.76 53.66 34.02 53.3933 33.4C52.7267 31.8167 52.6167 29.2734 53.1933 27.45C53.35 26.9834 54.0167 25.51 53.75 25.0634C53.61 24.64 53.17 24.3967 52.9267 24.0534C52.6141 23.6062 52.3461 23.1295 52.1267 22.63C51.5933 21.3834 51.3267 20.0034 50.7467 18.7567C50.48 18.18 50.0133 17.5767 49.6333 17.0467C49.21 16.4467 48.7433 16.0234 48.4067 15.3134C48.2967 15.07 48.14 14.6667 48.3167 14.4C48.3633 14.22 48.4567 14.15 48.63 14.1C48.9233 13.86 49.7467 14.1734 50.0367 14.3067C50.86 14.64 51.5533 14.9534 52.2433 15.42C52.5567 15.64 52.8933 16.0634 53.2933 16.1734H53.76C54.4733 16.33 55.2767 16.22 55.9433 16.4167C57.1267 16.7967 58.1933 17.35 59.15 17.95C62.0981 19.8327 64.4958 22.4616 66.1 25.57C66.3667 26.0834 66.4833 26.5534 66.7267 27.0867C67.1933 28.1867 67.77 29.2967 68.2433 30.36C68.71 31.41 69.16 32.48 69.83 33.35C70.1633 33.8167 71.5033 34.06 72.1033 34.3034C72.5467 34.5034 73.2367 34.6867 73.6367 34.93C74.4033 35.3967 75.15 35.93 75.87 36.4434C76.2367 36.6967 77.3467 37.2534 77.4133 37.7034Z" fill="black"/>
</g>
<defs>
<clipPath id="clip0_93_1115">
<rect width="80" height="80" fill="white"/>
</clipPath>
</defs>
</svg>
