<svg width="60" height="60" viewBox="0 0 60 60" fill="none" xmlns="http://www.w3.org/2000/svg">
<g clip-path="url(#clip0_162_2609)">
<path d="M11.1477 10.5197C13.0127 12.0347 13.7127 11.9197 17.2177 11.6847L50.2552 9.70225C50.9552 9.70225 50.3727 9.00225 50.1402 8.88725L44.6502 4.91975C43.6002 4.10475 42.1977 3.16975 39.5127 3.40225L7.52516 5.73725C6.36016 5.85225 6.12516 6.43725 6.59016 6.90225L11.1477 10.5197ZM13.1302 18.2197V52.9797C13.1302 54.8472 14.0627 55.5472 16.1652 55.4297L52.4727 53.3297C54.5752 53.2147 54.8102 51.9297 54.8102 50.4122V15.8847C54.8102 14.3697 54.2277 13.5522 52.9402 13.6672L14.9977 15.8847C13.5977 16.0022 13.1302 16.7047 13.1302 18.2197ZM48.9727 20.0822C49.2052 21.1322 48.9727 22.1822 47.9227 22.3022L46.1727 22.6522V48.3122C44.6527 49.1297 43.2527 49.5972 42.0852 49.5972C40.2152 49.5972 39.7477 49.0122 38.3477 47.2647L26.9052 29.2997V46.6797L30.5252 47.4997C30.5252 47.4997 30.5252 49.5997 27.6052 49.5997L19.5502 50.0647C19.3177 49.5997 19.5502 48.4322 20.3677 48.1997L22.4677 47.6172V24.6347L19.5552 24.3997C19.3202 23.3497 19.9052 21.8347 21.5377 21.7172L30.1777 21.1347L42.0877 39.3322V23.2322L39.0502 22.8847C38.8177 21.5997 39.7502 20.6672 40.9177 20.5522L48.9727 20.0822ZM4.84016 2.58725L38.1152 0.137246C42.2002 -0.212754 43.2527 0.0197461 45.8202 1.88725L56.4427 9.35225C58.1927 10.6347 58.7777 10.9847 58.7777 12.3847V53.3297C58.7777 55.8947 57.8452 57.4147 54.5777 57.6447L15.9327 59.9797C13.4827 60.0972 12.3127 59.7472 11.0277 58.1122L3.20516 47.9622C1.80516 46.0947 1.22266 44.6972 1.22266 43.0622V6.66725C1.22266 4.56975 2.15766 2.81725 4.84016 2.58725Z" fill="black"/>
</g>
<defs>
<clipPath id="clip0_162_2609">
<rect width="60" height="60" fill="white"/>
</clipPath>
</defs>
</svg>
