<svg width="80" height="80" viewBox="0 0 80 80" fill="none" xmlns="http://www.w3.org/2000/svg">
<path d="M40 17.92C17.9125 17.92 0 27.33 0 38.955C0 50.58 17.9125 59.995 40 59.995C62.0875 59.995 80 50.58 80 38.955C80 27.33 62.0875 17.92 40 17.92ZM40 20.02C61.425 20.02 77.9 29.0425 77.9 38.955C77.9 48.8675 61.4125 57.895 40 57.895C18.575 57.895 2.1 48.8675 2.1 38.955C2.1 29.0425 18.5875 20.02 40 20.02ZM35.1425 24.19L31.0975 45.04H35.61L37.94 33.09C41.6125 33.09 43.1325 32.945 43.8 33.6625C44.4925 34.405 44.1375 35.22 42.2325 45.0375H46.8075C48.7875 34.8875 49.6625 32.7325 47.8325 31.05C46.09 29.4425 42.48 29.725 38.5825 29.725L39.6575 24.19H35.1425ZM16.22 29.74L12.175 50.605H16.7175L17.7925 45.0625C22.8725 45.0625 26.03 45.4325 28.9475 42.7C32.175 39.7325 33.0175 34.45 30.715 31.8075C29.515 30.4225 27.5825 29.74 24.965 29.74H16.22ZM51.7 29.74L47.6475 50.605H52.1975L53.2725 45.0625C58.615 45.0625 61.5725 45.3725 64.4275 42.7C67.655 39.7325 68.5 34.45 66.1975 31.8075C64.9975 30.4225 63.065 29.74 60.445 29.74H51.7ZM23.34 33.0275C26.1775 33.1075 27.8 33.7075 27.115 37.27C26.1375 42.28 22.69 41.7625 18.4475 41.7625L20.1425 33.0325C21.3175 33.0325 22.3925 33 23.34 33.0275ZM58.8225 33.0275C61.665 33.1075 63.27 33.7075 62.5825 37.27C61.5925 42.3525 58.045 41.7625 53.915 41.7625L55.61 33.0325C56.7925 33.0325 57.8775 33 58.8225 33.0275Z" fill="black"/>
</svg>
