<svg width="60" height="60" viewBox="0 0 60 60" fill="none" xmlns="http://www.w3.org/2000/svg">
<g clip-path="url(#clip0_162_2607)">
<path d="M57.2693 6.83335H35.4177V0.700928H31.5543L0 6.16573V53.8482L31.1796 59.2991H35.4177V52.4854H55.8657C57.0308 52.4309 58.3255 52.5468 59.3202 51.8244C60.1106 50.6049 59.919 49.0785 59.9872 47.7021V9.5044C60.1439 7.93726 58.8364 6.68347 57.2693 6.83335ZM19.9846 32.2622C18.4379 33.0525 16.6663 32.9435 14.9834 32.8891L14.9766 40.8815L10.9223 40.5408L10.9291 18.7029C14.6291 18.88 19.1125 17.238 22.1787 20.0111C25.1154 23.5748 24.3386 30.1295 19.9846 32.2622ZM56.7313 49.2696H35.4177V44.9902H51.7706V42.2649H35.4177V38.858H51.7706V36.1325H35.4245C35.4245 36.1325 35.4177 33.4615 35.4109 32.126C38.1091 32.9641 41.1821 32.9437 43.5941 31.322C46.2039 29.7753 47.5665 26.825 47.7914 23.8814H38.8246V14.9827L35.4177 15.6709V10.0491H56.7313V49.2696ZM40.1868 13.5585C44.9223 13.7765 48.9089 17.7797 49.161 22.5017H40.1868V13.5585ZM14.9766 22.3891C16.3188 22.3278 17.9814 22.0825 18.8876 23.343C19.6644 24.6785 19.6235 26.4365 18.9762 27.8128C18.1995 29.2164 16.4414 29.0802 15.0855 29.2437C14.9426 26.9611 14.9561 24.6785 14.9766 22.3891Z" fill="black"/>
</g>
<defs>
<clipPath id="clip0_162_2607">
<rect width="60" height="60" fill="white"/>
</clipPath>
</defs>
</svg>
