<svg width="40" height="40" viewBox="0 0 40 40" fill="none" xmlns="http://www.w3.org/2000/svg">
<g clip-path="url(#clip0_93_1131)">
<path d="M23.7499 0.3L25.2499 0.633333L26.4666 1.06667L27.4499 1.56667L28.1999 2.1L28.7666 2.66667L29.1832 3.23333L29.4499 3.78333L29.6166 4.28333L29.6832 4.71667L29.7166 5.05L29.6999 5.26667V14.1667L29.6166 15.2167L29.3999 16.1333L29.0499 16.9L28.6166 17.5333L28.1166 18.05L27.5666 18.4667L26.9832 18.7833L26.3999 19.0167L25.8499 19.1833L25.3499 19.3L24.9166 19.3667L24.5666 19.4H14.6166L13.4666 19.4833L12.4832 19.7167L11.6499 20.0833L10.9666 20.5333L10.4166 21.0667L9.96657 21.65L9.63324 22.25L9.38324 22.8667L9.21657 23.45L9.0999 23.9833L9.03324 24.4333L8.9999 24.7833V29.8833H5.28324L4.93324 29.8333L4.46657 29.7167L3.93324 29.5167L3.3499 29.2167L2.7499 28.7833L2.1499 28.1833L1.56657 27.4167L1.03324 26.4333L0.566569 25.2167L0.216569 23.75L-0.0167643 22L-0.100098 19.95L-9.76622e-05 17.9167L0.266569 16.1833L0.666569 14.7333L1.1999 13.55L1.7999 12.6L2.46657 11.8667L3.16657 11.3167L3.86657 10.9167L4.53324 10.65L5.13324 10.4833L5.66657 10.4L6.06657 10.3833H6.33324L6.43324 10.4H20.0332V9.01667H10.2999L10.2832 4.43333L10.2499 3.81667L10.3332 3.25L10.5166 2.73333L10.7999 2.26667L11.2166 1.83333L11.7332 1.45L12.3666 1.11667L13.0999 0.816667L13.9499 0.566667L14.9166 0.366667L15.9832 0.2L17.1666 0.1L18.4499 0.0333333L19.8499 0L21.9666 0.0833333L23.7499 0.3ZM13.2499 3.6L12.8666 4.15L12.7332 4.83333L12.8666 5.51667L13.2499 6.08333L13.7999 6.45L14.4832 6.6L15.1666 6.45L15.7166 6.08333L16.0999 5.51667L16.2332 4.83333L16.0999 4.15L15.7166 3.6L15.1666 3.23333L14.4832 3.08333L13.7999 3.23333L13.2499 3.6ZM35.0666 10.1833L35.5332 10.2833L36.0666 10.4833L36.6499 10.7833L37.2499 11.2333L37.8499 11.8167L38.4332 12.6L38.9666 13.5833L39.4332 14.8L39.7832 16.2667L40.0166 18L40.0999 20.05L39.9999 22.1L39.7332 23.8333L39.3332 25.2667L38.7999 26.45L38.1999 27.4L37.5332 28.15L36.8332 28.7L36.1332 29.1L35.4666 29.3667L34.8666 29.5167L34.3332 29.6L33.9332 29.6333L33.6666 29.6167H19.9666V30.9833H29.6999L29.7166 35.5833L29.7499 36.1833L29.6666 36.75L29.4832 37.2667L29.1999 37.75L28.7832 38.1667L28.2666 38.5667L27.6332 38.9L26.8999 39.1833L26.0499 39.4333L25.0832 39.65L24.0166 39.8L22.8332 39.9167L21.5499 39.9833L20.1499 40L18.0332 39.9333L16.2499 39.7L14.7499 39.3667L13.5332 38.95L12.5499 38.45L11.7999 37.9L11.2332 37.3333L10.8166 36.7667L10.5499 36.2167L10.3832 35.7167L10.3166 35.3L10.2832 34.9667L10.2999 34.75V25.85L10.3832 24.7833L10.5999 23.8833L10.9499 23.1167L11.3832 22.4833L11.8832 21.95L12.4332 21.55L13.0166 21.2167L13.5999 20.9833L14.1499 20.8167L14.6499 20.7167L15.0832 20.65L15.4332 20.6167L15.6499 20.6H25.3832L26.5332 20.5167L27.5166 20.2833L28.3499 19.9333L29.0332 19.4667L29.5832 18.9333L30.0332 18.35L30.3666 17.75L30.6166 17.15L30.7832 16.5667L30.8999 16.0333L30.9666 15.5667L30.9999 15.2167V10.1167H34.4832L34.7166 10.1333L35.0666 10.1833ZM24.2832 33.9333L23.8999 34.4833L23.7666 35.1667L23.8999 35.85L24.2832 36.4L24.8332 36.7833L25.5166 36.9167L26.1999 36.7833L26.7499 36.4L27.1332 35.85L27.2666 35.1667L27.1332 34.4833L26.7499 33.9333L26.1999 33.55L25.5166 33.4167L24.8332 33.55L24.2832 33.9333Z" fill="black"/>
</g>
<defs>
<clipPath id="clip0_93_1131">
<rect width="40" height="40" fill="white"/>
</clipPath>
</defs>
</svg>
