<svg width="40" height="40" viewBox="0 0 40 40" fill="none" xmlns="http://www.w3.org/2000/svg">
<g clip-path="url(#clip0_93_1108)">
<path d="M16.1024 19.9975C14.2399 19.04 12.4274 18.555 10.7174 18.555C10.4841 18.555 10.2508 18.5642 10.0174 18.5825C7.78018 18.7904 5.58668 19.3323 3.50994 20.19L0.00244141 32.355C2.41244 31.4625 4.54494 31.03 6.49744 31.03C9.65494 31.03 11.9474 32.21 13.8399 33.425C14.7374 30.3825 16.8874 23.03 17.5299 20.835C17.0618 20.5445 16.5858 20.2669 16.1024 20.0025V19.9975ZM20.6374 23.0875L17.1049 35.36C18.1524 35.96 21.6799 37.8625 24.3799 37.8625C26.5599 37.8625 28.9999 37.305 31.8349 36.1525L35.2074 24.3575C32.9174 25.0975 30.7199 25.4725 28.6649 25.4725C24.9174 25.4725 22.2924 24.2575 20.6374 23.0925V23.0875ZM11.4374 14.405C14.4499 14.435 16.6774 15.585 18.5249 16.7675L22.1474 4.37252C21.3849 3.93502 19.3824 2.84502 17.9349 2.47502C16.9462 2.24746 15.9345 2.13421 14.9199 2.13752C12.8974 2.17502 10.6849 2.68252 8.16744 3.69252L4.71244 15.825C7.24494 14.87 9.42744 14.405 11.4374 14.405ZM39.9999 7.74002C37.7024 8.63252 35.4599 9.08752 33.3199 9.08752C29.7374 9.08752 27.0974 7.84502 25.3874 6.65252L21.7949 19.0825C24.2074 20.6325 26.8074 21.4225 29.5349 21.4225C31.7599 21.4225 34.0649 20.8875 36.3899 19.8325L36.3824 19.745L36.5274 19.71L39.9999 7.74002Z" fill="black"/>
</g>
<defs>
<clipPath id="clip0_93_1108">
<rect width="40" height="40" fill="white"/>
</clipPath>
</defs>
</svg>
