<svg width="60" height="60" viewBox="0 0 60 60" fill="none" xmlns="http://www.w3.org/2000/svg">
<path d="M49.7275 19.47C51.5316 22.7775 52.4763 26.485 52.475 30.2525C52.475 34.1854 51.4429 38.0495 49.4819 41.4586C47.5209 44.8677 44.6997 47.7026 41.3 49.68L48.165 29.8325C49.4475 26.6275 49.875 24.06 49.875 21.785C49.8771 21.0109 49.8278 20.2376 49.7275 19.47ZM33.1 19.6875C33.9574 19.6456 34.813 19.5723 35.665 19.4675C36.8775 19.31 36.735 17.53 35.525 17.595C35.525 17.595 31.8675 17.875 29.525 17.875C27.3075 17.875 23.5875 17.5625 23.5875 17.5625C22.37 17.5025 22.2125 19.345 23.435 19.4075C23.435 19.4075 24.5575 19.5375 25.78 19.595L29.2775 29.19L24.34 43.9375L16.155 19.6275C17.0136 19.5843 17.8706 19.5151 18.725 19.42C19.9425 19.2625 19.8 17.4825 18.5875 17.5525C18.5875 17.5525 14.95 17.84 12.6 17.84C12.1825 17.84 11.6875 17.8225 11.1625 17.8075C15.2325 11.815 22.155 7.7825 30 7.7825C35.8525 7.7825 41.1775 10.0175 45.1775 13.6825C45.0825 13.6775 44.9875 13.6625 44.885 13.6625C42.6775 13.6625 41.11 15.5875 41.11 17.6525C41.11 19.505 42.1775 21.075 43.3175 22.9225C44.175 24.425 45.1725 26.3475 45.1725 29.125C45.1725 31.0325 44.435 33.28 43.46 36.3725L41.22 43.84L33.095 19.6525L33.1 19.6875ZM30 52.7175C27.8507 52.719 25.7123 52.4126 23.65 51.8075L30.3925 32.2125L37.3 51.1425C37.3517 51.2525 37.4058 51.3558 37.4625 51.4525C35.0646 52.2942 32.5414 52.7237 30 52.7225M7.525 30.2525C7.51833 27.1008 8.18129 23.9837 9.47 21.1075L20.1875 50.48C16.3906 48.6374 13.1892 45.7629 10.9498 42.1857C8.71046 38.6084 7.52355 34.4729 7.525 30.2525ZM30 5.2525C16.2175 5.2525 5 16.47 5 30.2525C5 44.035 16.2175 55.2525 30 55.2525C43.7825 55.2525 55 44.035 55 30.2525C55 16.47 43.7825 5.2525 30 5.2525Z" fill="black"/>
</svg>
