<svg width="60" height="60" viewBox="0 0 60 60" fill="none" xmlns="http://www.w3.org/2000/svg">
<path d="M52.925 8.125C53.475 8.125 53.9667 8.33333 54.4 8.75C54.8 9.15 55 9.63333 55 10.2V49.8C55 50.3667 54.8 50.85 54.4 51.25C53.9667 51.6667 53.475 51.875 52.925 51.875H19.575C19.025 51.875 18.5333 51.6667 18.1 51.25C17.7 50.85 17.5 50.3667 17.5 49.8V42.5H7.075C6.525 42.5 6.03333 42.3 5.6 41.9C5.2 41.4667 5 40.975 5 40.425V19.575C5 19.025 5.2 18.5333 5.6 18.1C6.03333 17.7 6.525 17.5 7.075 17.5H17.5V10.2C17.5 9.63333 17.7 9.15 18.1 8.75C18.5333 8.33333 19.025 8.125 19.575 8.125M17.575 28.35L20.575 38.2H24L27.275 21.8H23.825L21.875 31.5L19.1 22.125H16.25L13.275 31.55L11.325 21.8H7.725L11 38.2H14.425M51.875 48.75V42.5H20.625V48.75M51.875 39.375V31.575H30V39.375M51.875 28.45V20.625H30V28.45M51.875 17.5V11.25H20.625V17.5H51.875Z" fill="black"/>
</svg>
